<svg width="23" height="24" viewBox="0 0 23 24" fill="none" xmlns="http://www.w3.org/2000/svg">
<path d="M15.5016 15.2937L18.7663 23.5694H22.8224C22.8224 23.5694 21.0218 19.1354 20.1546 17.3526C19.5626 16.1354 18.4556 15.3034 17.4954 14.8674C17.1786 14.7232 16.4997 14.5452 16.1596 14.5052C15.4795 14.4265 15.3132 14.8117 15.5016 15.2937Z" fill="white"/>
<path d="M5.63282 9.75029C5.93128 8.95457 9.08957 1.18267 9.39782 0.43055H13.3891L16.3969 7.9796C16.978 9.43903 16.9327 10.9626 16.2685 12.267C15.6043 13.5714 14.5842 14.5101 13.0454 14.8795C12.172 15.0902 9.53237 15.6401 9.53237 15.6401C7.10799 16.236 6.28111 17.8359 5.34659 20.1104C4.99309 20.9715 3.96805 23.5694 3.96805 23.5694H0L1.55346 19.6659C2.96258 15.892 4.01208 15.0902 6.95509 14.3333C7.90796 14.0886 10.2577 13.9154 11.2473 13.6817C12.3127 13.4297 12.9977 12.7999 13.4405 11.9291C13.8808 11.0656 13.9041 10.0434 13.509 9.05025L11.3928 3.33245L7.92019 13.0143C7.80644 13.2965 7.46884 13.3837 7.11044 13.2251C7.11044 13.2251 4.7986 11.9691 5.63282 9.75029Z" fill="white"/>
</svg>
