<svg width="14" height="14" viewBox="0 0 14 14" fill="none" xmlns="http://www.w3.org/2000/svg">
<path d="M13.1162 6.42969L13.2217 6.47754V7.52246L13.1162 7.57031L9.42188 9.24805L9.24707 9.42188L7.57031 13.1162L7.52246 13.2227H6.47754L6.42969 13.1162L5.26465 10.5537C5.67132 9.85955 6.1974 9.36844 7.13086 9.13574C7.13086 9.13574 8.66226 8.81425 9.16992 8.69043C10.0655 8.47167 10.6601 7.92199 11.0439 7.1543C11.2812 6.6795 11.3819 6.15739 11.3447 5.625L13.1162 6.42969ZM7.57031 0.883789L8.93457 3.88867L9.44238 5.27246C9.66938 5.85441 9.65724 6.45327 9.40137 6.96094C9.1414 7.47263 8.74486 7.83964 8.12598 7.98828C7.84583 8.05681 7.3764 8.11587 6.90527 8.1748C6.41171 8.23655 5.91582 8.29817 5.63281 8.37207C4.963 8.54519 4.46273 8.72434 4.05176 9.00977L0.883789 7.57031L0.777344 7.52246V6.47754L0.883789 6.42969L4.57617 4.75098L4.75 4.57617L6.42969 0.883789L6.47754 0.777344H7.52246L7.57031 0.883789Z" fill="#E0FF63"/>
</svg>
